:FULLY-SPECIFIED
:FORCE-ALL-JOINTS-BE-3DOF
:DEGREES
1325
root -1.50048 15.0496 6.95917 350.108 26.5469 363.199
lfemur 1.66014 4.27715 -18.1672
ltibia 58.6228 0 0
lfoot -31.8442 25.1972 0
ltoes -18.4433 0 0
rfemur -53.8935 -5.73069 1.30936
rtibia 41.8387 0 0
rfoot 24.3722 10.5364 0
rtoes 9.74644 0 0
lowerback 13.9559 0.123536 -11.8473
upperback -1.3149 -1.62827 0.788108
thorax -9.1687 -0.156974 7.86397
lowerneck -5.42785 -9.09825 -11.3554
upperneck 17.1504 -12.3867 7.40184
head 7.30335 -6.14655 3.21952
lclavicle 7.35616e-14 1.88754e-15 0
lhumerus -36.47 -52.0947 116.759
lradius 115.103 0 0
lwrist 36.6566 0 0
lhand -12.2482 48.0185 0
lfingers 7.12502 0 0
lthumb 13.8199 -282.403 0
rclavicle 7.35616e-14 1.88754e-15 0
rhumerus 36.3467 20.9932 -57.3563
rradius 103.854 0 0
rwrist -27.3815 0 0
rhand -13.5208 -29.656 0
rfingers 7.12502 0 0
rthumb 12.5876 -59.032 0
1326
root -1.51515 15.0354 7.14383 350.136 26.9268 363.362
lfemur 2.44532 4.03713 -18.0031
ltibia 58.3944 0 0
lfoot -32.0512 25.4067 0
ltoes -18.8554 0 0
rfemur -54.5328 -5.92503 1.11972
rtibia 42.1524 0 0
rfoot 24.3114 10.809 0
rtoes 9.94302 0 0
lowerback 14.0064 0.121077 -11.9741
upperback -1.30549 -1.65168 0.743896
thorax -9.19276 -0.161984 7.88897
lowerneck -5.33279 -9.19965 -11.4115
upperneck 17.0665 -12.5282 7.44814
head 7.28033 -6.21887 3.23762
lclavicle 7.41949e-14 1.63468e-15 0
lhumerus -37.8556 -51.7965 117.034
lradius 115.112 0 0
lwrist 36.8173 0 0
lhand -12.0929 47.9731 0
lfingers 7.12502 0 0
lthumb 13.9698 -282.454 0
rclavicle 7.41949e-14 1.63468e-15 0
rhumerus 37.2803 20.2946 -56.5645
rradius 103.679 0 0
rwrist -26.4016 0 0
rhand -14.0357 -29.7086 0
rfingers 7.12502 0 0
rthumb 12.0909 -59.0883 0
1327
root -1.53007 15.0202 7.3295 350.184 27.2986 363.524
lfemur 3.22451 3.79627 -17.834
ltibia 58.133 0 0
lfoot -32.2311 25.6232 0
ltoes -19.2529 0 0
rfemur -55.1525 -6.13275 0.947651
rtibia 42.4929 0 0
rfoot 24.2065 11.0652 0
rtoes 10.1057 0 0
lowerback 14.0505 0.121842 -12.0941
upperback -1.29944 -1.66979 0.698544
thorax -9.21718 -0.164709 7.90786
lowerneck -5.2305 -9.30189 -11.4658
upperneck 16.9673 -12.6712 7.49748
head 7.25174 -6.29194 3.25673
lclavicle 7.47672e-14 1.36896e-15 0
lhumerus -39.2495 -51.45 117.276
lradius 115.098 0 0
lwrist 37.0074 0 0
lhand -11.9416 47.921 0
lfingers 7.12502 0 0
lthumb 14.1158 -282.512 0
rclavicle 7.47672e-14 1.36896e-15 0
rhumerus 38.2208 19.5651 -55.7504
rradius 103.474 0 0
rwrist -25.3639 0 0
rhand -14.5813 -29.764 0
rfingers 7.12502 0 0
rthumb 11.5646 -59.1473 0
1328
root -1.54525 15.0041 7.51594 350.255 27.6612 363.683
lfemur 3.9963 3.55494 -17.66
ltibia 57.8372 0 0
lfoot -32.382 25.8466 0
ltoes -19.6342 0 0
rfemur -55.7508 -6.35428 0.794428
rtibia 42.8612 0 0
rfoot 24.0552 11.3036 0
rtoes 10.2324 0 0
lowerback 14.0877 0.126007 -12.2064
upperback -1.29692 -1.68229 0.652061
thorax -9.24194 -0.165022 7.92028
lowerneck -5.12078 -9.40484 -11.5181
upperneck 16.852 -12.8155 7.54994
head 7.21734 -6.3657 3.27686
lclavicle 7.5274e-14 1.0901e-15 0
lhumerus -40.6499 -51.0531 117.483
lradius 115.061 0 0
lwrist 37.228 0 0
lhand -11.7947 47.8619 0
lfingers 7.12502 0 0
lthumb 14.2575 -282.576 0
rclavicle 7.5274e-14 1.0901e-15 0
rhumerus 39.1672 18.8044 -54.9141
rradius 103.237 0 0
rwrist -24.2669 0 0
rhand -15.1584 -29.8224 0
rfingers 7.12502 0 0
rthumb 11.0079 -59.2089 0
1329
root -1.56067 14.9868 7.70293 350.35 28.0135 363.84
lfemur 4.75923 3.3135 -17.481
ltibia 57.5054 0 0
lfoot -32.5022 26.0771 0
ltoes -19.9982 0 0
rfemur -56.3256 -6.59003 0.66132
rtibia 43.2582 0 0
rfoot 23.8551 11.523 0
rtoes 10.3213 0 0
lowerback 14.1177 0.133749 -12.3107
upperback -1.29812 -1.68886 0.604455
thorax -9.26701 -0.162793 7.92586
lowerneck -5.00339 -9.5084 -11.5682
upperneck 16.7201 -12.9611 7.60563
head 7.17686 -6.44007 3.29804
lclavicle 7.57105e-14 7.97806e-16 0
lhumerus -42.055 -50.6038 117.653
lradius 115 0 0
lwrist 37.4805 0 0
lhand -11.6527 47.7955 0
lfingers 7.12502 0 0
lthumb 14.3946 -282.649 0
rclavicle 7.57105e-14 7.97806e-16 0
rhumerus 40.1184 18.012 -54.0559
rradius 102.967 0 0
rwrist -23.1092 0 0
rhand -15.7678 -29.8837 0
rfingers 7.12502 0 0
rthumb 10.4201 -59.2732 0
1330
root -1.57632 14.9685 7.89022 350.469 28.3545 363.994
lfemur 5.51188 3.07231 -17.2971
ltibia 57.1359 0 0
lfoot -32.5897 26.3145 0
ltoes -20.3435 0 0
rfemur -56.8752 -6.84043 0.549599
rtibia 43.6851 0 0
rfoot 23.604 11.7221 0
rtoes 10.3704 0 0
lowerback 14.1398 0.145243 -12.4063
upperback -1.30324 -1.68917 0.555736
thorax -9.29237 -0.157891 7.92423
lowerneck -4.87812 -9.61245 -11.6159
upperneck 16.5708 -13.1078 7.66461
head 7.13005 -6.51497 3.3203
lclavicle 7.6072e-14 4.91782e-16 0
lhumerus -43.463 -50.1 117.784
lradius 114.912 0 0
lwrist 37.7661 0 0
lhand -11.5159 47.7216 0
lfingers 7.12502 0 0
lthumb 14.5265 -282.728 0
rclavicle 7.6072e-14 4.91782e-16 0
rhumerus 41.0731 17.1873 -53.1757
rradius 102.663 0 0
rwrist -21.8894 0 0
rhand -16.4102 -29.9481 0
rfingers 7.12502 0 0
rthumb 9.80028 -59.3402 0
1331
root -1.59219 14.949 8.0776 350.613 28.6832 364.145
lfemur 6.25281 2.83172 -17.1082
ltibia 56.7273 0 0
lfoot -32.6429 26.5589 0
ltoes -20.6688 0 0
rfemur -57.3974 -7.1059 0.460536
rtibia 44.1427 0 0
rfoot 23.2996 11.8996 0
rtoes 10.3776 0 0
lowerback 14.1538 0.160665 -12.4927
upperback -1.31246 -1.68291 0.505911
thorax -9.31799 -0.150187 7.91504
lowerneck -4.74476 -9.71686 -11.661
upperneck 16.4034 -13.2554 7.72698
head 7.07666 -6.59032 3.34366
lclavicle 7.63538e-14 1.71741e-16 0
lhumerus -44.8723 -49.5396 117.873
lradius 114.798 0 0
lwrist 38.0862 0 0
lhand -11.3848 47.6399 0
lfingers 7.12502 0 0
lthumb 14.653 -282.816 0
rclavicle 7.63538e-14 1.71741e-16 0
rhumerus 42.0305 16.3298 -52.2737
rradius 102.324 0 0
rwrist -20.6059 0 0
rhand -17.0866 -30.0155 0
rfingers 7.12502 0 0
rthumb 9.14782 -59.4099 0
1332
root -1.60828 14.9284 8.26483 350.785 28.9983 364.293
lfemur 6.98059 2.59209 -16.9144
ltibia 56.2778 0 0
lfoot -32.66 26.8105 0
ltoes -20.9728 0 0
rfemur -57.8904 -7.38684 0.395403
rtibia 44.6321 0 0
rfoot 22.9396 12.0543 0
rtoes 10.341 0 0
lowerback 14.1593 0.180191 -12.5692
upperback -1.32598 -1.66975 0.454991
thorax -9.34385 -0.139551 7.89791
lowerneck -4.60308 -9.82152 -11.7034
upperneck 16.2174 -13.4037 7.79282
head 7.01642 -6.66606 3.36813
lclavicle 7.65513e-14 -1.62611e-16 0
lhumerus -46.281 -48.9207 117.919
lradius 114.655 0 0
lwrist 38.4419 0 0
lhand -11.2599 47.5501 0
lfingers 7.12502 0 0
lthumb 14.7735 -282.911 0
rclavicle 7.65513e-14 -1.62611e-16 0
rhumerus 42.9892 15.4391 -51.35
rradius 101.947 0 0
rwrist -19.2574 0 0
rhand -17.7976 -30.0861 0
rfingers 7.12502 0 0
rthumb 8.46191 -59.4825 0
1333
root -1.62457 14.9066 8.45168 350.984 29.299 364.437
lfemur 7.69378 2.35378 -16.7156
ltibia 55.786 0 0
lfoot -32.639 27.0691 0
ltoes -21.2541 0 0
rfemur -58.3522 -7.68369 0.355471
rtibia 45.1542 0 0
rfoot 22.5219 12.1849 0
rtoes 10.2586 0 0
lowerback 14.1557 0.203996 -12.6353
upperback -1.34397 -1.64937 0.402983
thorax -9.36991 -0.125854 7.87247
lowerneck -4.45288 -9.9263 -11.7428
upperneck 16.012 -13.5527 7.86222
head 6.94909 -6.74209 3.39375
lclavicle 7.66598e-14 -5.11563e-16 0
lhumerus -47.6874 -48.2413 117.92
lradius 114.484 0 0
lwrist 38.8345 0 0
lhand -11.1416 47.452 0
lfingers 7.12502 0 0
lthumb 14.8876 -283.015 0
rclavicle 7.66598e-14 -5.11563e-16 0
rhumerus 43.9483 14.5145 -50.4047
rradius 101.533 0 0
rwrist -17.8424 0 0
rhand -18.544 -30.1599 0
rfingers 7.12502 0 0
rthumb 7.74178 -59.5578 0
1334
root -1.64106 14.8836 8.63792 351.212 29.584 364.576
lfemur 8.39095 2.11715 -16.5118
ltibia 55.2502 0 0
lfoot -32.5783 27.3349 0
ltoes -21.5114 0 0
rfemur -58.7809 -7.99687 0.342011
rtibia 45.7101 0 0
rfoot 22.044 12.2901 0
rtoes 10.1284 0 0
lowerback 14.1427 0.232257 -12.6905
upperback -1.36664 -1.62146 0.349896
thorax -9.39617 -0.108965 7.83835
lowerneck -4.29392 -10.0311 -11.779
upperneck 15.7865 -13.7022 7.93527
head 6.87441 -6.81835 3.42053
lclavicle 7.66745e-14 -8.75408e-16 0
lhumerus -49.0897 -47.4991 117.873
lradius 114.281 0 0
lwrist 39.2654 0 0
lhand -11.0302 47.3453 0
lfingers 7.12502 0 0
lthumb 14.995 -283.127 0
rclavicle 7.66745e-14 -8.75408e-16 0
rhumerus 44.9067 13.5557 -49.438
rradius 101.079 0 0
rwrist -16.3594 0 0
rhand -19.3267 -30.2369 0
rfingers 7.12502 0 0
rthumb 6.98668 -59.6359 0
1335
root -1.65773 14.8593 8.82332 351.47 29.8523 364.711
lfemur 9.07066 1.88255 -16.303
ltibia 54.6689 0 0
lfoot -32.4759 27.6078 0
ltoes -21.7433 0 0
rfemur -59.1745 -8.32678 0.356294
rtibia 46.3008 0 0
rfoot 21.5037 12.3687 0
rtoes 9.94852 0 0
lowerback 14.1198 0.265149 -12.734
upperback -1.39416 -1.58569 0.29574
thorax -9.42258 -0.0887559 7.7952
lowerneck -4.12599 -10.1358 -11.8119
upperneck 15.5403 -13.852 8.01205
head 6.79212 -6.89476 3.4485
lclavicle 7.65908e-14 -1.25444e-15 0
lhumerus -50.4861 -46.6923 117.776
lradius 114.047 0 0
lwrist 39.7358 0 0
lhand -10.9264 47.2298 0
lfingers 7.12502 0 0
lthumb 15.0951 -283.248 0
rclavicle 7.65908e-14 -1.25444e-15 0
rhumerus 45.8632 12.562 -48.45
rradius 100.584 0 0
rwrist -14.807 0 0
rhand -20.1464 -30.3172 0
rfingers 7.12502 0 0
rthumb 6.19583 -59.7169 0
1336
root -1.67458 14.8337 9.00764 351.76 30.1029 364.842
lfemur 9.73147 1.65036 -16.0893
ltibia 54.0405 0 0
lfoot -32.3302 27.8879 0
ltoes -21.9487 0 0
rfemur -59.5311 -8.67386 0.399592
rtibia 46.9273 0 0
rfoot 20.8988 12.4195 0
rtoes 9.7169 0 0
lowerback 14.0866 0.302849 -12.7655
upperback -1.42674 -1.54174 0.240522
thorax -9.44913 -0.065096 7.74264
lowerneck -3.94889 -10.2403 -11.8412
upperneck 15.2727 -14.002 8.09266
head 6.70197 -6.97124 3.47768
lclavicle 7.6404e-14 -1.64894e-15 0
lhumerus -51.8749 -45.8188 117.627
lradius 113.781 0 0
lwrist 40.2469 0 0
lhand -10.8303 47.1051 0
lfingers 7.12502 0 0
lthumb 15.1877 -283.379 0
rclavicle 7.6404e-14 -1.64894e-15 0
rhumerus 46.8168 11.533 -47.4408
rradius 100.047 0 0
rwrist -13.1837 0 0
rhand -21.0039 -30.4008 0
rfingers 7.12502 0 0
rthumb 5.36847 -59.8008 0
1337
root -1.69159 14.8068 9.19066 352.081 30.3347 364.967
lfemur 10.372 1.42091 -15.8706
ltibia 53.3634 0 0
lfoot -32.1393 28.1753 0
ltoes -22.1261 0 0
rfemur -59.8488 -9.03851 0.473176
rtibia 47.5905 0 0
rfoot 20.2269 12.4411 0
rtoes 9.4316 0 0
lowerback 14.0427 0.345532 -12.7843
upperback -1.46455 -1.48929 0.184253
thorax -9.47579 -0.0378558 7.6803
lowerneck -3.76237 -10.3444 -11.8668
upperneck 14.983 -14.152 8.17716
head 6.6037 -7.04772 3.5081
lclavicle 7.61093e-14 -2.05921e-15 0
lhumerus -53.2543 -44.8765 117.424
lradius 113.48 0 0
lwrist 40.8001 0 0
lhand -10.7427 46.971 0
lfingers 7.12502 0 0
lthumb 15.2722 -283.518 0
rclavicle 7.61093e-14 -2.05921e-15 0
rhumerus 47.7663 10.4682 -46.4105
rradius 99.4663 0 0
rwrist -11.4881 0 0
rhand -21.9001 -30.4879 0
rfingers 7.12502 0 0
rthumb 4.50384 -59.8877 0
1338
root -1.70875 14.7785 9.37215 352.436 30.5467 365.087
lfemur 10.9907 1.19458 -15.6468
ltibia 52.636 0 0
lfoot -31.9014 28.4699 0
ltoes -22.2741 0 0
rfemur -60.1256 -9.42116 0.578316
rtibia 48.2914 0 0
rfoot 19.4858 12.4323 0
rtoes 9.09061 0 0
lowerback 13.9877 0.393373 -12.7898
upperback -1.50778 -1.42802 0.12694
thorax -9.50254 -0.00690557 7.60783
lowerneck -3.56624 -10.4481 -11.8885
upperneck 14.6705 -14.302 8.26566
head 6.49705 -7.12411 3.53977
lclavicle 7.57021e-14 -2.48554e-15 0
lhumerus -54.6225 -43.8634 117.165
lradius 113.144 0 0
lwrist 41.3966 0 0
lhand -10.6637 46.8273 0
lfingers 7.12502 0 0
lthumb 15.3483 -283.667 0
rclavicle 7.57021e-14 -2.48554e-15 0
rhumerus 48.7106 9.36711 -45.3592
rradius 98.8412 0 0
rwrist -9.71882 0 0
rhand -22.8356 -30.5784 0
rfingers 7.12502 0 0
rthumb 3.60117 -59.9775 0
